<svg xmlns="http://www.w3.org/2000/svg" viewBox="0 0 100 100">
  <!-- Main 4-pointed star -->
  <path d="M50 20 L53 35 L68 35 L57 45 L60 60 L50 52 L40 60 L43 45 L32 35 L47 35 Z" fill="#000000"/>
  <!-- Small sparkles around it -->
  <path d="M25 30 L27 32 L25 34 L23 32 Z" fill="#000000"/>
  <path d="M75 28 L77 30 L75 32 L73 30 Z" fill="#000000"/>
  <path d="M30 65 L32 67 L30 69 L28 67 Z" fill="#000000"/>
  <path d="M70 68 L72 70 L70 72 L68 70 Z" fill="#000000"/>
  <!-- Tiny sparkle dots -->
  <circle cx="35" cy="25" r="1" fill="#000000"/>
  <circle cx="80" cy="45" r="1" fill="#000000"/>
  <circle cx="20" cy="55" r="1" fill="#000000"/>
  <circle cx="85" cy="75" r="1" fill="#000000"/>
</svg>
